<svg width="208" height="111" viewBox="0 0 208 111" fill="none"
    xmlns="http://www.w3.org/2000/svg">
    <g filter="url(#filter0_d_284_1072)">
        <rect x="25" y="17" width="158" height="61" rx="19" stroke="url(#paint0_linear_284_1072)" stroke-width="2" shape-rendering="crispEdges"/>
    </g>
    <path d="M86.8799 36.9468H96.5479V39.1196H89.3213V44.3198H96.3037V46.5049H89.3213V51.8027H96.7798V53.9756H86.8799V36.9468ZM106.826 42.7695H109.67L105.044 48.2993L110 54H107.156L103.628 49.9717L100.295 54H97.5L102.224 48.2993L97.5 42.7695H100.295L103.628 46.627L106.826 42.7695ZM111.428 59.7251V42.7695H115.322C117.316 42.7695 118.866 43.266 119.973 44.2588C121.088 45.2516 121.646 46.6392 121.646 48.4214C121.646 50.106 121.121 51.4894 120.071 52.5718C119.029 53.6541 117.699 54.1953 116.079 54.1953C115.363 54.1953 114.569 54.0366 113.699 53.7192V59.7251H111.428ZM115.273 44.8447H113.699V51.7539C114.382 52.1038 115.098 52.2788 115.847 52.2788C116.889 52.2788 117.739 51.9167 118.398 51.1924C119.066 50.4681 119.399 49.5363 119.399 48.397C119.399 47.6646 119.241 47.0176 118.923 46.4561C118.614 45.8945 118.187 45.4876 117.642 45.2354C117.104 44.9749 116.315 44.8447 115.273 44.8447ZM124.124 36.9468H126.345V54H124.124V36.9468ZM134.939 42.7451C136.648 42.7451 138.068 43.2985 139.199 44.4053C140.33 45.5039 140.896 46.8874 140.896 48.5557C140.896 50.1751 140.322 51.522 139.175 52.5962C138.027 53.6623 136.583 54.1953 134.841 54.1953C133.157 54.1953 131.749 53.6541 130.618 52.5718C129.486 51.4813 128.921 50.1222 128.921 48.4946C128.921 46.8507 129.491 45.4836 130.63 44.3931C131.777 43.2944 133.214 42.7451 134.939 42.7451ZM134.817 44.7471C133.751 44.7471 132.876 45.097 132.192 45.7969C131.509 46.4967 131.167 47.3879 131.167 48.4702C131.167 49.5444 131.517 50.4233 132.217 51.1069C132.917 51.7824 133.816 52.1201 134.915 52.1201C136.005 52.1201 136.896 51.7783 137.588 51.0947C138.288 50.403 138.638 49.52 138.638 48.4458C138.638 47.3797 138.276 46.4967 137.551 45.7969C136.827 45.097 135.916 44.7471 134.817 44.7471ZM145.742 42.7695V45.3452L145.864 45.1499C146.938 43.4165 148.013 42.5498 149.087 42.5498C149.925 42.5498 150.8 42.973 151.711 43.8193L150.54 45.7725C149.766 45.04 149.05 44.6738 148.391 44.6738C147.675 44.6738 147.052 45.0156 146.523 45.6992C146.003 46.3828 145.742 47.1925 145.742 48.1284V54H143.508V42.7695H145.742ZM162.332 48.5801H154.434C154.491 49.6543 154.849 50.5088 155.508 51.1436C156.175 51.7783 157.034 52.0957 158.083 52.0957C159.548 52.0957 160.899 51.64 162.136 50.7285V52.9014C161.453 53.3571 160.773 53.6826 160.098 53.8779C159.43 54.0732 158.645 54.1709 157.742 54.1709C156.505 54.1709 155.504 53.9146 154.739 53.4019C153.974 52.8892 153.359 52.2015 152.896 51.3389C152.44 50.4681 152.212 49.4631 152.212 48.3237C152.212 46.6147 152.696 45.2272 153.665 44.1611C154.633 43.0869 155.89 42.5498 157.437 42.5498C158.926 42.5498 160.114 43.0706 161.001 44.1123C161.888 45.154 162.332 46.5496 162.332 48.2993V48.5801ZM154.482 47.2495H160.134C160.077 46.3625 159.813 45.6789 159.341 45.1987C158.869 44.7186 158.234 44.4785 157.437 44.4785C156.639 44.4785 155.984 44.7186 155.471 45.1987C154.967 45.6789 154.637 46.3625 154.482 47.2495Z" fill="#00536D"/>
    <path d="M57 58C64.1797 58 70 52.1797 70 45C70 37.8203 64.1797 32 57 32C49.8203 32 44 37.8203 44 45C44 52.1797 49.8203 58 57 58Z" stroke="#00536D" stroke-width="2" stroke-linecap="round" stroke-linejoin="round"/>
    <path d="M62.512 39.4878L59.756 47.7558L51.488 50.5118L54.244 42.2438L62.512 39.4878Z" stroke="#00536D" stroke-width="2" stroke-linecap="round" stroke-linejoin="round"/>
    <defs>
        <filter id="filter0_d_284_1072" x="0" y="0" width="208" height="111" filterUnits="userSpaceOnUse" color-interpolation-filters="sRGB">
            <feFlood flood-opacity="0" result="BackgroundImageFix"/>
            <feColorMatrix in="SourceAlpha" type="matrix" values="0 0 0 0 0 0 0 0 0 0 0 0 0 0 0 0 0 0 127 0" result="hardAlpha"/>
            <feOffset dy="8"/>
            <feGaussianBlur stdDeviation="12"/>
            <feComposite in2="hardAlpha" operator="out"/>
            <feColorMatrix type="matrix" values="0 0 0 0 0 0 0 0 0 0 0 0 0 0 0 0 0 0 0.15 0"/>
            <feBlend mode="normal" in2="BackgroundImageFix" result="effect1_dropShadow_284_1072"/>
            <feBlend mode="normal" in="SourceGraphic" in2="effect1_dropShadow_284_1072" result="shape"/>
        </filter>
        <linearGradient id="paint0_linear_284_1072" x1="104" y1="79" x2="104" y2="16" gradientUnits="userSpaceOnUse">
            <stop stop-color="#EED44B"/>
            <stop offset="0.576282" stop-color="#C4C4C4" stop-opacity="0"/>
        </linearGradient>
    </defs>
</svg>
