<svg width="162" height="39" viewBox="0 0 162 39" fill="none" xmlns="http://www.w3.org/2000/svg">
  <circle cx="16.5" cy="16.5" r="16.5" fill="#EED44B" />
  <line x1="28.6103" y1="28.4848" x2="34.2919" y2="35.0081" stroke="#EED44B" stroke-width="6" stroke-linecap="round" />
  <line x1="9" y1="10" x2="24" y2="10" stroke="#004053" stroke-width="2" stroke-linecap="round" />
  <line x1="9" y1="14" x2="16" y2="14" stroke="#004053" stroke-width="2" stroke-linecap="round" />
  <line x1="9" y1="18" x2="24" y2="18" stroke="#004053" stroke-width="2" stroke-linecap="round" />
  <line x1="9" y1="22" x2="16" y2="22" stroke="#004053" stroke-width="2" stroke-linecap="round" />
  <path
    d="M47.375 14.5V17.7H49.25C49.6833 17.7 49.975 17.5917 50.125 17.375C50.275 17.1417 50.35 16.8583 50.35 16.525V15.675C50.35 15.3417 50.275 15.0667 50.125 14.85C49.975 14.6167 49.6833 14.5 49.25 14.5H47.375ZM46.475 28H42.625C42.3083 28 42.075 27.9333 41.925 27.8C41.7917 27.65 41.725 27.4167 41.725 27.1V10.9C41.725 10.5833 41.7917 10.3583 41.925 10.225C42.075 10.075 42.3083 10 42.625 10H50.95C52.8167 10 54.1 10.3917 54.8 11.175C55.5167 11.9417 55.875 12.9417 55.875 14.175V15.325C55.875 16.025 55.7667 16.625 55.55 17.125C55.35 17.6083 54.9917 17.9583 54.475 18.175C55.375 18.275 56.1 18.6417 56.65 19.275C57.2167 19.9083 57.5 20.75 57.5 21.8V27.1C57.5 27.4167 57.425 27.65 57.275 27.8C57.1417 27.9333 56.9167 28 56.6 28H52.725C52.4083 28 52.175 27.9333 52.025 27.8C51.8917 27.65 51.825 27.4167 51.825 27.1V23.275C51.825 22.9083 51.75 22.6417 51.6 22.475C51.4667 22.2917 51.225 22.2 50.875 22.2H47.375V27.1C47.375 27.4167 47.3 27.65 47.15 27.8C47.0167 27.9333 46.7917 28 46.475 28ZM66.8291 15.25L65.6541 19.05H69.5791L68.4041 15.25C68.3374 15.1 68.2624 14.9917 68.1791 14.925C68.1124 14.8583 68.0291 14.825 67.9291 14.825H67.3041C67.2041 14.825 67.1124 14.8583 67.0291 14.925C66.9624 14.9917 66.8958 15.1 66.8291 15.25ZM65.4041 27.1C65.4041 27.4167 65.3291 27.65 65.1791 27.8C65.0458 27.9333 64.8208 28 64.5041 28H60.8291C60.5124 28 60.2791 27.9333 60.1291 27.8C59.9958 27.65 59.9291 27.4167 59.9291 27.1V20.5C59.9291 20 60.0041 19.425 60.1541 18.775C60.3208 18.125 60.5708 17.3667 60.9041 16.5L63.0791 10.825C63.1791 10.5417 63.3291 10.3333 63.5291 10.2C63.7458 10.0667 64.0208 10 64.3541 10H71.0791C71.3958 10 71.6541 10.0667 71.8541 10.2C72.0708 10.3333 72.2291 10.5417 72.3291 10.825L74.5041 16.5C74.8374 17.3667 75.0791 18.125 75.2291 18.775C75.3958 19.425 75.4791 20 75.4791 20.5V27.1C75.4791 27.4167 75.4041 27.65 75.2541 27.8C75.1208 27.9333 74.8958 28 74.5791 28H70.8041C70.4708 28 70.2208 27.9333 70.0541 27.8C69.9041 27.65 69.8291 27.4167 69.8291 27.1V23.6H65.4041V27.1ZM86.9158 28H79.0158C78.6992 28 78.4658 27.9333 78.3158 27.8C78.1825 27.65 78.1158 27.4167 78.1158 27.1V24.175C78.1158 23.8583 78.1825 23.6333 78.3158 23.5C78.4658 23.35 78.6992 23.275 79.0158 23.275H85.7408C85.9575 23.275 86.1158 23.2083 86.2158 23.075C86.3325 22.925 86.3908 22.75 86.3908 22.55C86.3908 22.2667 86.3325 22.0583 86.2158 21.925C86.1158 21.7917 85.9575 21.7167 85.7408 21.7L81.9908 21.175C80.8242 21.0083 79.8825 20.625 79.1658 20.025C78.4658 19.425 78.1158 18.425 78.1158 17.025V14.4C78.1158 12.9833 78.5742 11.9 79.4908 11.15C80.4075 10.3833 81.6742 10 83.2908 10H90.2908C90.6075 10 90.8325 10.075 90.9658 10.225C91.1158 10.3583 91.1908 10.5833 91.1908 10.9V13.875C91.1908 14.1917 91.1158 14.425 90.9658 14.575C90.8325 14.7083 90.6075 14.775 90.2908 14.775H84.4658C84.2492 14.775 84.0825 14.85 83.9658 15C83.8492 15.1333 83.7908 15.3083 83.7908 15.525C83.7908 15.7417 83.8492 15.925 83.9658 16.075C84.0825 16.225 84.2492 16.3083 84.4658 16.325L88.1908 16.825C89.3575 16.9917 90.2992 17.375 91.0158 17.975C91.7325 18.575 92.0908 19.575 92.0908 20.975V23.6C92.0908 25.0167 91.6242 26.1083 90.6908 26.875C89.7742 27.625 88.5158 28 86.9158 28ZM103.081 28H99.0314C98.7148 28 98.4814 27.9333 98.3314 27.8C98.1981 27.65 98.1314 27.4167 98.1314 27.1V14.825H94.4564C94.1398 14.825 93.9064 14.7583 93.7564 14.625C93.6231 14.475 93.5564 14.2417 93.5564 13.925V10.9C93.5564 10.5833 93.6231 10.3583 93.7564 10.225C93.9064 10.075 94.1398 10 94.4564 10H107.656C107.973 10 108.198 10.075 108.331 10.225C108.481 10.3583 108.556 10.5833 108.556 10.9V13.925C108.556 14.2417 108.481 14.475 108.331 14.625C108.198 14.7583 107.973 14.825 107.656 14.825H103.981V27.1C103.981 27.4167 103.906 27.65 103.756 27.8C103.623 27.9333 103.398 28 103.081 28ZM123.488 28H111.888C111.571 28 111.338 27.9333 111.188 27.8C111.054 27.65 110.988 27.4167 110.988 27.1V10.9C110.988 10.5833 111.054 10.3583 111.188 10.225C111.338 10.075 111.571 10 111.888 10H123.488C123.804 10 124.029 10.075 124.163 10.225C124.313 10.3583 124.388 10.5833 124.388 10.9V13.825C124.388 14.1417 124.313 14.375 124.163 14.525C124.029 14.6583 123.804 14.725 123.488 14.725H116.588V16.65H121.463C121.779 16.65 122.004 16.725 122.138 16.875C122.288 17.0083 122.363 17.2333 122.363 17.55V20.225C122.363 20.5417 122.288 20.775 122.138 20.925C122.004 21.0583 121.779 21.125 121.463 21.125H116.588V23.275H123.488C123.804 23.275 124.029 23.35 124.163 23.5C124.313 23.6333 124.388 23.8583 124.388 24.175V27.1C124.388 27.4167 124.313 27.65 124.163 27.8C124.029 27.9333 123.804 28 123.488 28ZM132.995 14.5V17.7H134.87C135.303 17.7 135.595 17.5917 135.745 17.375C135.895 17.1417 135.97 16.8583 135.97 16.525V15.675C135.97 15.3417 135.895 15.0667 135.745 14.85C135.595 14.6167 135.303 14.5 134.87 14.5H132.995ZM132.095 28H128.245C127.928 28 127.695 27.9333 127.545 27.8C127.412 27.65 127.345 27.4167 127.345 27.1V10.9C127.345 10.5833 127.412 10.3583 127.545 10.225C127.695 10.075 127.928 10 128.245 10H136.57C138.437 10 139.72 10.3917 140.42 11.175C141.137 11.9417 141.495 12.9417 141.495 14.175V15.325C141.495 16.025 141.387 16.625 141.17 17.125C140.97 17.6083 140.612 17.9583 140.095 18.175C140.995 18.275 141.72 18.6417 142.27 19.275C142.837 19.9083 143.12 20.75 143.12 21.8V27.1C143.12 27.4167 143.045 27.65 142.895 27.8C142.762 27.9333 142.537 28 142.22 28H138.345C138.028 28 137.795 27.9333 137.645 27.8C137.512 27.65 137.445 27.4167 137.445 27.1V23.275C137.445 22.9083 137.37 22.6417 137.22 22.475C137.087 22.2917 136.845 22.2 136.495 22.2H132.995V27.1C132.995 27.4167 132.92 27.65 132.77 27.8C132.637 27.9333 132.412 28 132.095 28ZM161.052 23.275C161.052 24.0417 160.935 24.7417 160.702 25.375C160.485 25.9917 160.085 26.525 159.502 26.975C158.935 27.4083 158.144 27.75 157.127 28C156.127 28.25 154.852 28.375 153.302 28.375C151.752 28.375 150.469 28.25 149.452 28C148.435 27.75 147.635 27.4083 147.052 26.975C146.485 26.525 146.085 25.9917 145.852 25.375C145.635 24.7417 145.527 24.0417 145.527 23.275V14.75C145.527 13.9833 145.635 13.2917 145.852 12.675C146.085 12.0417 146.485 11.5 147.052 11.05C147.635 10.6 148.435 10.25 149.452 10C150.469 9.75 151.752 9.625 153.302 9.625C154.852 9.625 156.127 9.75 157.127 10C158.144 10.25 158.935 10.6 159.502 11.05C160.085 11.5 160.485 12.0417 160.702 12.675C160.935 13.2917 161.052 13.9833 161.052 14.75V23.275ZM151.202 22.375C151.202 22.7083 151.327 22.9917 151.577 23.225C151.827 23.4417 152.402 23.55 153.302 23.55C154.202 23.55 154.777 23.4417 155.027 23.225C155.277 22.9917 155.402 22.7083 155.402 22.375V15.65C155.402 15.3333 155.277 15.0667 155.027 14.85C154.777 14.6167 154.202 14.5 153.302 14.5C152.402 14.5 151.827 14.6167 151.577 14.85C151.327 15.0667 151.202 15.3333 151.202 15.65V22.375Z"
    fill="#004054"
  />
</svg>
