<svg width="54" height="54" viewBox="0 0 54 54" fill="none"
    xmlns="http://www.w3.org/2000/svg">
    <circle cx="27" cy="27" r="27" fill="#DBF6FF"/>
    <path d="M36.5293 36.2312V33.9151C36.5293 32.6865 36.0273 31.5082 35.1337 30.6395C34.2402 29.7708 33.0283 29.2827 31.7646 29.2827H22.2352C20.9715 29.2827 19.7596 29.7708 18.866 30.6395C17.9725 31.5082 17.4705 32.6865 17.4705 33.9151V36.2312" stroke="#004054" stroke-width="2" stroke-linecap="round" stroke-linejoin="round"/>
    <path d="M26.9998 24.6505C29.6313 24.6505 31.7645 22.5765 31.7645 20.0181C31.7645 17.4597 29.6313 15.3857 26.9998 15.3857C24.3683 15.3857 22.2351 17.4597 22.2351 20.0181C22.2351 22.5765 24.3683 24.6505 26.9998 24.6505Z" stroke="#004054" stroke-width="2" stroke-linecap="round" stroke-linejoin="round"/>
</svg>
